<svg width="29" height="29" viewBox="0 0 29 29" fill="none" xmlns="http://www.w3.org/2000/svg">
<path d="M26.4987 8.16834L22.4266 24.5171C22.2853 25.1083 21.9481 25.6343 21.4698 26.0095C20.9915 26.3846 20.4003 26.5869 19.7925 26.5833H3.91497C2.09039 26.5833 0.785388 24.795 1.32914 23.0429L6.41622 6.70625C6.5862 6.15223 6.92877 5.66702 7.39394 5.3214C7.85911 4.97578 8.42255 4.78784 9.00205 4.785H23.8646C25.0125 4.785 25.9671 5.48584 26.3658 6.4525C26.5954 6.97209 26.6437 7.56417 26.4987 8.16834Z" stroke="#01456D" stroke-width="1.5" stroke-miterlimit="10"/>
<path d="M19.3334 26.5833H25.1093C26.668 26.5833 27.8884 25.2663 27.7797 23.7075L26.5834 7.25M11.6968 7.70916L12.9534 2.48916M19.7926 7.72125L20.9284 2.47708M9.30428 14.5H18.9709M8.09595 19.3333H17.7626" stroke="#01456D" stroke-width="1.5" stroke-miterlimit="10" stroke-linecap="round" stroke-linejoin="round"/>
</svg>
